PathFileType	4	(X/Y/Z)	C:\Users\italobelli\Desktop\GitHub\PTbot_officialCBL\Personal_Results\FLX23_noisy2.trc
DataRate	CameraRate	NumFrames	NumMarkers	Units	OrigDataRate	OrigDataStartFrame	OrigNumFrames
106.533333	106.533333	43	9	m	106.533333	201	800
Frame#	Time		gu		centelbow		EpL		centpxt8		centijc7		ij		ts		aa		ai
			X1	Y1	Z1	X2	Y2	Z2	X3	Y3	Z3	X4	Y4	Z4	X5	Y5	Z5	X6	Y6	Z6	X7	Y7	Z7	X8	Y8	Z8	X9	Y9	Z9

201	1.8773	-0.065959	0.015804	0.15145	0.10202	-0.14314	0.22491	0.1103	-0.11812	0.24268	-0.046816	-0.15316	-0.008669	-0.046816	0.031938	-0.008669	0	0	0	-0.15107	0.016581	0.05375	-0.10255	0.043157	0.15888	-0.14827	-0.09166	0.085317
202	1.8867	-0.066031	0.016841	0.15109	0.10456	-0.13905	0.22514	0.11258	-0.11378	0.24271	-0.046816	-0.15316	-0.008669	-0.046816	0.031938	-0.008669	0	0	0	-0.15141	0.016347	0.053725	-0.10263	0.043839	0.15855	-0.14807	-0.09171	0.086042
203	1.8961	-0.066108	0.01786	0.15073	0.10702	-0.13496	0.22536	0.11478	-0.10944	0.24274	-0.046816	-0.15316	-0.008669	-0.046816	0.031938	-0.008669	0	0	0	-0.15174	0.01611	0.053701	-0.10271	0.044514	0.15821	-0.14787	-0.091756	0.086767
204	1.9055	-0.066189	0.018858	0.15037	0.10939	-0.13088	0.22557	0.11689	-0.10512	0.24276	-0.046816	-0.15316	-0.008669	-0.046816	0.031938	-0.008669	0	0	0	-0.15207	0.015872	0.053679	-0.10279	0.045179	0.15787	-0.14767	-0.091801	0.087493
205	1.9149	-0.066275	0.019834	0.15001	0.11167	-0.12681	0.22578	0.11891	-0.10081	0.24278	-0.046816	-0.15316	-0.008669	-0.046816	0.031938	-0.008669	0	0	0	-0.15238	0.01563	0.053659	-0.10287	0.045834	0.15754	-0.14748	-0.091842	0.088218
206	1.9243	-0.066366	0.020786	0.14964	0.11385	-0.12275	0.22598	0.12084	-0.096523	0.2428	-0.046816	-0.15316	-0.008669	-0.046816	0.031938	-0.008669	0	0	0	-0.15269	0.015387	0.05364	-0.10295	0.046478	0.1572	-0.14728	-0.091882	0.088942
207	1.9337	-0.066462	0.021712	0.14927	0.11593	-0.11871	0.22617	0.12267	-0.092262	0.24281	-0.046816	-0.15316	-0.008669	-0.046816	0.031938	-0.008669	0	0	0	-0.15299	0.015141	0.053623	-0.10303	0.04711	0.15686	-0.14709	-0.091918	0.089664
208	1.9431	-0.066562	0.022609	0.1489	0.1179	-0.11469	0.22636	0.12439	-0.088031	0.24281	-0.046816	-0.15316	-0.008669	-0.046816	0.031938	-0.008669	0	0	0	-0.15327	0.014893	0.053608	-0.10311	0.047728	0.15652	-0.1469	-0.091952	0.090383
209	1.9524	-0.066667	0.023476	0.14853	0.11976	-0.11071	0.22654	0.12601	-0.083836	0.24282	-0.046816	-0.15316	-0.008669	-0.046816	0.031938	-0.008669	0	0	0	-0.15355	0.014643	0.053595	-0.1032	0.048332	0.15618	-0.14671	-0.091982	0.091099
210	1.9618	-0.066777	0.02431	0.14816	0.1215	-0.10676	0.22671	0.12751	-0.079681	0.24281	-0.046816	-0.15316	-0.008669	-0.046816	0.031938	-0.008669	0	0	0	-0.15381	0.01439	0.053584	-0.10328	0.04892	0.15584	-0.14652	-0.09201	0.091812
211	1.9712	-0.066892	0.02511	0.14778	0.12313	-0.10285	0.22687	0.1289	-0.075571	0.24281	-0.046816	-0.15316	-0.008669	-0.046816	0.031938	-0.008669	0	0	0	-0.15407	0.014136	0.053575	-0.10336	0.049492	0.1555	-0.14633	-0.092035	0.09252
212	1.9806	-0.067011	0.025873	0.14741	0.12463	-0.098978	0.22703	0.13017	-0.071511	0.2428	-0.046816	-0.15316	-0.008669	-0.046816	0.031938	-0.008669	0	0	0	-0.15431	0.01388	0.053569	-0.10344	0.050046	0.15516	-0.14615	-0.092056	0.093223
213	1.99	-0.067136	0.026598	0.14703	0.126	-0.095157	0.22717	0.13132	-0.067507	0.24278	-0.046816	-0.15316	-0.008669	-0.046816	0.031938	-0.008669	0	0	0	-0.15453	0.013621	0.053565	-0.10352	0.050581	0.15482	-0.14597	-0.092074	0.093921
214	1.9994	-0.067265	0.027282	0.14666	0.12724	-0.091388	0.22731	0.13234	-0.063562	0.24276	-0.046816	-0.15316	-0.008669	-0.046816	0.031938	-0.008669	0	0	0	-0.15475	0.013361	0.053564	-0.1036	0.051096	0.15448	-0.14579	-0.092089	0.094612
215	2.0088	-0.06741	0.027946	0.14627	0.12837	-0.087599	0.22743	0.13324	-0.059602	0.24272	-0.046816	-0.15316	-0.008669	-0.046816	0.031938	-0.008669	0	0	0	-0.15495	0.013095	0.053568	-0.10369	0.051603	0.15414	-0.14562	-0.092097	0.09531
216	2.0181	-0.067583	0.028616	0.14587	0.12944	-0.083691	0.22754	0.13405	-0.05553	0.24265	-0.046816	-0.15316	-0.008669	-0.046816	0.031938	-0.008669	0	0	0	-0.15515	0.012817	0.053583	-0.10377	0.052117	0.15379	-0.14544	-0.092093	0.096033
217	2.0275	-0.067784	0.029293	0.14545	0.13043	-0.079671	0.22762	0.13478	-0.051351	0.24254	-0.046816	-0.15316	-0.008669	-0.046816	0.031938	-0.008669	0	0	0	-0.15535	0.012528	0.053606	-0.10387	0.052637	0.15342	-0.14526	-0.092077	0.096778
218	2.0369	-0.068011	0.029975	0.14502	0.13135	-0.075542	0.22768	0.13541	-0.04707	0.2424	-0.046816	-0.15316	-0.008669	-0.046816	0.031938	-0.008669	0	0	0	-0.15554	0.012228	0.053639	-0.10396	0.053163	0.15305	-0.14508	-0.092051	0.097546
219	2.0463	-0.068263	0.030662	0.14457	0.13221	-0.071311	0.22773	0.13595	-0.042691	0.24223	-0.046816	-0.15316	-0.008669	-0.046816	0.031938	-0.008669	0	0	0	-0.15573	0.011918	0.05368	-0.10407	0.053694	0.15267	-0.1449	-0.092013	0.098334
220	2.0557	-0.06854	0.031354	0.14411	0.13299	-0.066981	0.22775	0.13642	-0.038221	0.24202	-0.046816	-0.15316	-0.008669	-0.046816	0.031938	-0.008669	0	0	0	-0.15591	0.011597	0.053729	-0.10417	0.054231	0.15227	-0.14472	-0.091965	0.099143
221	2.0651	-0.06884	0.032049	0.14363	0.13372	-0.062558	0.22776	0.13679	-0.033663	0.24179	-0.046816	-0.15316	-0.008669	-0.046816	0.031938	-0.008669	0	0	0	-0.15609	0.011267	0.053786	-0.10428	0.054771	0.15187	-0.14453	-0.091907	0.09997
222	2.0745	-0.069163	0.032747	0.14314	0.13437	-0.058048	0.22775	0.13709	-0.029024	0.24152	-0.046816	-0.15316	-0.008669	-0.046816	0.031938	-0.008669	0	0	0	-0.15627	0.010927	0.053851	-0.1044	0.055316	0.15146	-0.14435	-0.091838	0.10081
223	2.0839	-0.069507	0.033448	0.14264	0.13496	-0.053455	0.22772	0.1373	-0.024308	0.24123	-0.046816	-0.15316	-0.008669	-0.046816	0.031938	-0.008669	0	0	0	-0.15644	0.010579	0.053922	-0.10452	0.055864	0.15105	-0.14416	-0.09176	0.10168
224	2.0932	-0.069871	0.03415	0.14213	0.13549	-0.048784	0.22768	0.13744	-0.019521	0.24091	-0.046816	-0.15316	-0.008669	-0.046816	0.031938	-0.008669	0	0	0	-0.15661	0.010222	0.054001	-0.10464	0.056415	0.15062	-0.14398	-0.091673	0.10255
225	2.1026	-0.070255	0.034853	0.14161	0.13596	-0.04404	0.22761	0.1375	-0.014667	0.24056	-0.046816	-0.15316	-0.008669	-0.046816	0.031938	-0.008669	0	0	0	-0.15678	0.0098572	0.054085	-0.10477	0.056969	0.15019	-0.14379	-0.091576	0.10344
226	2.112	-0.070657	0.035557	0.14108	0.13636	-0.039228	0.22754	0.13748	-0.0097523	0.24019	-0.046816	-0.15316	-0.008669	-0.046816	0.031938	-0.008669	0	0	0	-0.15694	0.0094845	0.054176	-0.1049	0.057525	0.14975	-0.1436	-0.091471	0.10435
227	2.1214	-0.071076	0.03626	0.14053	0.1367	-0.034354	0.22744	0.13739	-0.0047813	0.23979	-0.046816	-0.15316	-0.008669	-0.046816	0.031938	-0.008669	0	0	0	-0.15709	0.0091045	0.054272	-0.10503	0.058082	0.1493	-0.1434	-0.091357	0.10526
228	2.1308	-0.071511	0.036963	0.13998	0.13699	-0.029423	0.22734	0.13723	0.0002406	0.23936	-0.046816	-0.15316	-0.008669	-0.046816	0.031938	-0.008669	0	0	0	-0.15724	0.0087177	0.054374	-0.10517	0.05864	0.14885	-0.14321	-0.091235	0.10619
229	2.1402	-0.071961	0.037663	0.13942	0.13721	-0.024438	0.22721	0.137	0.0053084	0.23892	-0.046816	-0.15316	-0.008669	-0.046816	0.031938	-0.008669	0	0	0	-0.15739	0.0083243	0.05448	-0.10532	0.059199	0.14839	-0.14302	-0.091105	0.10713
230	2.1496	-0.072426	0.038362	0.13886	0.13738	-0.019407	0.22707	0.13671	0.010417	0.23845	-0.046816	-0.15316	-0.008669	-0.046816	0.031938	-0.008669	0	0	0	-0.15753	0.0079248	0.05459	-0.10546	0.059757	0.14792	-0.14282	-0.090967	0.10807
231	2.1589	-0.072903	0.039057	0.13828	0.13749	-0.014333	0.22692	0.13634	0.015561	0.23796	-0.046816	-0.15316	-0.008669	-0.046816	0.031938	-0.008669	0	0	0	-0.15767	0.0075195	0.054705	-0.10561	0.060316	0.14745	-0.14262	-0.090823	0.10903
232	2.1683	-0.073393	0.039749	0.1377	0.13754	-0.0092211	0.22676	0.13591	0.020735	0.23744	-0.046816	-0.15316	-0.008669	-0.046816	0.031938	-0.008669	0	0	0	-0.1578	0.007109	0.054823	-0.10577	0.060873	0.14698	-0.14242	-0.090671	0.10999
233	2.1777	-0.073894	0.040436	0.13712	0.13753	-0.0040773	0.22658	0.13542	0.025935	0.23691	-0.046816	-0.15316	-0.008669	-0.046816	0.031938	-0.008669	0	0	0	-0.15792	0.0066935	0.054945	-0.10592	0.061429	0.1465	-0.14222	-0.090512	0.11095
234	2.1871	-0.074405	0.041119	0.13653	0.13748	0.0010939	0.22639	0.13487	0.031155	0.23636	-0.046816	-0.15316	-0.008669	-0.046816	0.031938	-0.008669	0	0	0	-0.15804	0.0062734	0.055069	-0.10608	0.061982	0.14602	-0.14201	-0.090347	0.11192
235	2.1965	-0.074925	0.041796	0.13593	0.13736	0.0062872	0.22619	0.13426	0.03639	0.23579	-0.046816	-0.15316	-0.008669	-0.046816	0.031938	-0.008669	0	0	0	-0.15816	0.0058492	0.055196	-0.10625	0.062534	0.14553	-0.1418	-0.090176	0.1129
236	2.2059	-0.075453	0.042467	0.13534	0.1372	0.011498	0.22598	0.13359	0.041635	0.23521	-0.046816	-0.15316	-0.008669	-0.046816	0.031938	-0.008669	0	0	0	-0.15826	0.0054213	0.055326	-0.10641	0.063082	0.14504	-0.14159	-0.089999	0.11388
237	2.2153	-0.075988	0.043131	0.13474	0.13698	0.016721	0.22575	0.13286	0.046885	0.2346	-0.046816	-0.15316	-0.008669	-0.046816	0.031938	-0.008669	0	0	0	-0.15837	0.00499	0.055456	-0.10658	0.063627	0.14455	-0.14138	-0.089817	0.11485
238	2.2247	-0.076529	0.043787	0.13413	0.13672	0.02195	0.22552	0.13208	0.052134	0.23398	-0.046816	-0.15316	-0.008669	-0.046816	0.031938	-0.008669	0	0	0	-0.15846	0.0045558	0.055589	-0.10676	0.064168	0.14406	-0.14117	-0.089629	0.11583
239	2.234	-0.077075	0.044435	0.13353	0.1364	0.027182	0.22527	0.13125	0.057378	0.23335	-0.046816	-0.15316	-0.008669	-0.046816	0.031938	-0.008669	0	0	0	-0.15855	0.004119	0.055722	-0.10693	0.064705	0.14356	-0.14095	-0.089437	0.11681
240	2.2434	-0.077625	0.045075	0.13292	0.13603	0.032411	0.22502	0.13036	0.062612	0.23271	-0.046816	-0.15316	-0.008669	-0.046816	0.031938	-0.008669	0	0	0	-0.15864	0.00368	0.055856	-0.10711	0.065237	0.14306	-0.14074	-0.08924	0.11778
241	2.2528	-0.078177	0.045704	0.13232	0.13562	0.037632	0.22475	0.12943	0.067829	0.23205	-0.046816	-0.15316	-0.008669	-0.046816	0.031938	-0.008669	0	0	0	-0.15871	0.0032393	0.05599	-0.10729	0.065763	0.14256	-0.14051	-0.089039	0.11875
242	2.2622	-0.078732	0.046324	0.13171	0.13516	0.042839	0.22448	0.12845	0.073026	0.23138	-0.046816	-0.15316	-0.008669	-0.046816	0.031938	-0.008669	0	0	0	-0.15878	0.0027972	0.056124	-0.10748	0.066284	0.14206	-0.14029	-0.088833	0.11972
243	2.2716	-0.079287	0.046933	0.13111	0.13465	0.048029	0.2242	0.12743	0.078197	0.23069	-0.046816	-0.15316	-0.008669	-0.046816	0.031938	-0.008669	0	0	0	-0.15885	0.0023541	0.056258	-0.10766	0.066798	0.14156	-0.14007	-0.088624	0.12068
